# Blender v2.79 (sub 0) OBJ File: 'Tower Segments - All.blend'
# www.blender.org
mtllib Tower Segments - Top.mtl
o Cube.001_Cube.002
v 0.889363 0.646715 -0.878568
v 0.889363 0.646715 0.832557
v 0.889363 0.156665 -0.878568
v 0.889363 0.156665 0.832557
v -0.841761 0.646715 -0.897443
v 0.869363 0.646715 -0.897443
v -0.841761 0.156665 -0.897443
v 0.869363 0.156665 -0.897443
v -0.860636 0.646715 -0.878568
v -0.860636 0.646715 0.832557
v -0.860636 0.156665 -0.878568
v -0.860636 0.156665 0.832557
v -0.885636 0.646715 -0.878568
v 0.914364 0.646715 -0.878568
v 0.914364 0.646715 0.832557
v -0.885636 0.646715 0.832557
v -0.841761 0.646715 0.877557
v -0.841761 0.646715 -0.922443
v 0.869363 0.646715 -0.922443
v 0.869363 0.646715 0.877557
v -0.885636 0.646715 0.877557
v 0.914364 0.646715 0.877557
v 0.914364 0.646715 -0.922443
v -0.885636 0.646715 -0.922443
v -0.885636 0.156665 -0.878568
v 0.914364 0.156665 -0.878568
v 0.914364 0.156665 0.832557
v -0.885636 0.156665 0.832557
v -0.841761 0.156665 0.877557
v -0.841761 0.156665 -0.922443
v 0.869363 0.156665 -0.922443
v 0.869363 0.156665 0.877557
v -0.885636 0.156665 0.877557
v 0.914364 0.156665 0.877557
v 0.914364 0.156665 -0.922443
v -0.885636 0.156665 -0.922443
v 0.869363 0.156665 0.852557
v -0.841761 0.156665 0.852557
v -0.885636 0.117065 -0.878568
v 0.914364 0.117065 -0.878568
v 0.869363 0.646715 0.852557
v -0.841761 0.646715 0.852557
v -0.885636 0.117065 0.832557
v 0.914364 0.117065 0.832557
v -0.841761 0.117065 0.877557
v -0.841761 0.117065 -0.922443
v 0.869363 0.117065 -0.922443
v 0.869363 0.117065 0.877557
v -0.885636 0.117065 0.877557
v -0.885636 0.117065 -0.922443
v 0.914364 0.117065 0.877557
v 0.914364 0.117065 -0.922443
v -0.885636 0.696715 0.877557
v 0.914364 0.696715 0.877557
v 0.914364 0.696715 -0.922443
v -0.885636 0.696715 -0.922443
vn 0.0000 0.0000 -1.0000
vn 0.0000 -1.0000 0.0000
vn 0.0000 0.0000 1.0000
vn 1.0000 0.0000 0.0000
vn -1.0000 0.0000 0.0000
vn 0.0000 1.0000 0.0000
usemtl None
s off
f 15//1 27//1 4//1 2//1
f 18//2 19//2 6//2 5//2
f 17//3 21//3 33//3 29//3
f 19//1 23//1 35//1 31//1
f 1//4 2//4 4//4 3//4
f 24//1 18//1 30//1 36//1
f 22//3 20//3 32//3 34//3
f 25//5 36//5 50//5 39//5
f 41//3 42//3 38//3 37//3
f 27//4 34//4 51//4 44//4
f 20//2 17//2 42//2 41//2
f 10//5 9//5 11//5 12//5
f 27//6 26//6 3//6 4//6
f 30//1 31//1 47//1 46//1
f 16//2 13//2 9//2 10//2
f 21//5 16//5 28//5 33//5
f 28//1 16//1 10//1 12//1
f 29//6 32//6 37//6 38//6
f 28//5 25//5 39//5 43//5
f 31//6 30//6 7//6 8//6
f 17//4 29//4 38//4 42//4
f 19//5 31//5 8//5 6//5
f 15//4 22//4 34//4 27//4
f 13//5 24//5 36//5 25//5
f 26//3 14//3 1//3 3//3
f 30//4 18//4 5//4 7//4
f 14//2 15//2 2//2 1//2
f 29//3 33//3 49//3 45//3
f 32//5 20//5 41//5 37//5
f 31//1 35//1 52//1 47//1
f 32//3 29//3 45//3 48//3
f 5//1 6//1 8//1 7//1
f 23//4 14//4 26//4 35//4
f 34//3 32//3 48//3 51//3
f 26//4 27//4 44//4 40//4
f 25//6 28//6 12//6 11//6
f 36//1 30//1 46//1 50//1
f 33//5 28//5 43//5 49//5
f 35//4 26//4 40//4 52//4
f 13//3 25//3 11//3 9//3
f 22//6 23//6 24//6 21//6
f 54//2 53//2 56//2 55//2
f 24//3 23//3 55//3 56//3
f 22//1 21//1 53//1 54//1
f 23//5 22//5 54//5 55//5
f 21//4 24//4 56//4 53//4
