# Blender v2.79 (sub 0) OBJ File: 'Tower Segments - All.blend'
# www.blender.org
mtllib Tower Segments - Bottom.mtl
o Cube.001_Cube.002
v 0.914364 0.226652 -0.922443
v 0.914364 0.226652 0.877557
v -0.885636 0.226652 -0.922443
v -0.885636 0.226652 0.877557
v 0.869363 0.226652 0.877557
v 0.869363 0.226652 -0.922443
v -0.841761 0.226652 -0.922443
v -0.841761 0.226652 0.877557
v 0.914364 0.226652 0.832557
v -0.885636 0.226652 0.832557
v -0.841761 0.756302 0.852557
v 0.869363 0.756302 0.852557
v 0.914364 0.226652 -0.878568
v -0.885636 0.226652 -0.878568
v -0.841761 0.266252 0.852557
v 0.869363 0.266252 0.852557
v -0.885636 0.266252 -0.922443
v 0.914364 0.266252 -0.922443
v 0.914364 0.266252 0.877557
v -0.885636 0.266252 0.877557
v 0.869363 0.266252 0.877557
v 0.869363 0.266252 -0.922443
v -0.841761 0.266252 -0.922443
v -0.841761 0.266252 0.877557
v -0.885636 0.266252 0.832557
v 0.914364 0.266252 0.832557
v 0.914364 0.266252 -0.878568
v -0.885636 0.266252 -0.878568
v -0.885636 0.756302 -0.922443
v 0.914364 0.756302 -0.922443
v 0.914364 0.756302 0.877557
v -0.885636 0.756302 0.877557
v 0.869363 0.756302 0.877557
v 0.869363 0.756302 -0.922443
v -0.841761 0.756302 -0.922443
v -0.841761 0.756302 0.877557
v -0.885636 0.756302 0.832557
v 0.914364 0.756302 0.832557
v 0.914364 0.756302 -0.878568
v -0.885636 0.756302 -0.878568
v -0.860636 0.266252 0.832557
v -0.860636 0.266252 -0.878568
v -0.860636 0.756302 0.832557
v -0.860636 0.756302 -0.878568
v 0.869363 0.266252 -0.897443
v -0.841761 0.266252 -0.897443
v 0.869363 0.756302 -0.897443
v -0.841761 0.756302 -0.897443
v 0.889363 0.266252 0.832557
v 0.889363 0.266252 -0.878568
v 0.889363 0.756302 0.832557
v 0.889363 0.756302 -0.878568
v 0.914364 0.176652 -0.922443
v 0.914364 0.176652 0.877557
v -0.885636 0.176652 -0.922443
v -0.885636 0.176652 0.877557
v 1.114363 0.176652 -1.122443
v 1.114363 0.226652 -1.122443
v 1.114363 0.176652 1.077556
v 1.114363 0.226652 1.077556
v 0.914364 0.226652 1.077556
v -0.885636 0.226652 1.077556
v 0.914364 0.176652 1.077556
v -0.885636 0.176652 1.077556
v 0.914364 0.226652 -1.122443
v -0.885636 0.226652 -1.122443
v 0.914364 0.176652 -1.122443
v -0.885636 0.176652 -1.122443
v 1.114363 0.176652 0.877557
v 1.114363 0.176652 -0.922443
v 1.114363 0.226652 0.877557
v 1.114363 0.226652 -0.922443
v -1.085636 0.226652 -0.922443
v -1.085636 0.226652 0.877557
v -1.085636 0.176652 -0.922443
v -1.085636 0.176652 0.877557
v -1.085636 0.226652 1.077556
v -1.085636 0.176652 1.077556
v -1.085636 0.226652 -1.122443
v -1.085636 0.176652 -1.122443
vn 0.0000 0.0000 1.0000
vn 0.0000 0.0000 -1.0000
vn 1.0000 0.0000 0.0000
vn -1.0000 0.0000 0.0000
vn 0.0000 -1.0000 0.0000
vn 0.0000 1.0000 0.0000
usemtl None
s off
f 40//1 28//1 42//1 44//1
f 22//2 18//2 1//2 6//2
f 26//3 19//3 2//3 9//3
f 24//1 20//1 4//1 8//1
f 28//4 17//4 3//4 14//4
f 19//1 21//1 5//1 2//1
f 23//2 22//2 6//2 7//2
f 48//2 47//2 45//2 46//2
f 43//4 44//4 42//4 41//4
f 17//2 23//2 7//2 3//2
f 21//1 24//1 8//1 5//1
f 33//5 36//5 11//5 12//5
f 25//2 37//2 43//2 41//2
f 20//4 25//4 10//4 4//4
f 27//3 26//3 9//3 13//3
f 37//5 40//5 44//5 43//5
f 24//6 21//6 16//6 15//6
f 18//3 27//3 13//3 1//3
f 21//4 33//4 12//4 16//4
f 12//1 11//1 15//1 16//1
f 25//4 28//4 14//4 10//4
f 28//6 25//6 41//6 42//6
f 30//3 39//3 27//3 18//3
f 26//6 27//6 50//6 49//6
f 32//4 37//4 25//4 20//4
f 36//3 24//3 15//3 11//3
f 29//2 35//2 23//2 17//2
f 22//6 23//6 46//6 45//6
f 31//1 33//1 21//1 19//1
f 40//4 29//4 17//4 28//4
f 36//1 32//1 20//1 24//1
f 38//3 31//3 19//3 26//3
f 34//2 30//2 18//2 22//2
f 34//4 22//4 45//4 47//4
f 23//3 35//3 48//3 46//3
f 35//5 34//5 47//5 48//5
f 52//3 51//3 49//3 50//3
f 27//1 39//1 52//1 50//1
f 39//5 38//5 51//5 52//5
f 38//2 26//2 49//2 51//2
f 2//5 4//5 3//5 1//5
f 54//6 53//6 55//6 56//6
f 66//5 3//5 73//5 79//5
f 53//6 54//6 69//6 70//6
f 54//6 63//6 59//6 69//6
f 1//5 65//5 58//5 72//5
f 61//5 2//5 71//5 60//5
f 2//5 1//5 72//5 71//5
f 67//6 53//6 70//6 57//6
f 71//4 69//4 59//4 60//4
f 62//2 61//2 63//2 64//2
f 54//6 56//6 64//6 63//6
f 56//6 55//6 75//6 76//6
f 4//5 2//5 61//5 62//5
f 65//1 66//1 68//1 67//1
f 68//1 66//1 79//1 80//1
f 55//6 53//6 67//6 68//6
f 1//5 3//5 66//5 65//5
f 70//4 72//4 58//4 57//4
f 71//4 72//4 70//4 69//4
f 65//1 67//1 57//1 58//1
f 63//2 61//2 60//2 59//2
f 73//3 74//3 76//3 75//3
f 76//3 74//3 77//3 78//3
f 73//3 75//3 80//3 79//3
f 3//5 4//5 74//5 73//5
f 64//6 56//6 76//6 78//6
f 62//2 64//2 78//2 77//2
f 4//5 62//5 77//5 74//5
f 55//6 68//6 80//6 75//6
